<svg width="1200" height="800" viewBox="0 0 1200 800" fill="none" xmlns="http://www.w3.org/2000/svg">
  <!-- 背景 -->
  <rect width="1200" height="800" fill="#F9F9FB"/>
  
  <!-- 标题区域 -->
  <text x="60" y="60" font-family="PingFang SC" font-size="32" font-weight="700" fill="#222222">二手交换卡片交互状态设计</text>
  <text x="60" y="90" font-family="PingFang SC" font-size="16" fill="#666666">Exchange Card Interaction States - 悬停、激活、禁用状态</text>
  
  <!-- 默认状态 -->
  <g transform="translate(80, 140)">
    <text x="0" y="-20" font-family="PingFang SC" font-size="18" font-weight="600" fill="#222222">默认状态 (Default)</text>
    
    <!-- 卡片容器 -->
    <rect x="0" y="0" width="280" height="360" rx="16" fill="white" stroke="#E0E0E6" stroke-width="1" filter="url(#defaultShadow)"/>
    
    <!-- 图片区域 -->
    <rect x="16" y="16" width="248" height="160" rx="12" fill="#F3F3F7"/>
    <rect x="32" y="32" width="216" height="128" rx="8" fill="#E0E0E6"/>
    <text x="140" y="100" font-family="PingFang SC" font-size="40" fill="#999999" text-anchor="middle">📱</text>
    
    <!-- 收藏按钮 -->
    <circle cx="244" cy="36" r="14" fill="white" fill-opacity="0.9" filter="url(#buttonShadow)"/>
    <text x="244" y="41" font-family="PingFang SC" font-size="12" fill="#999999" text-anchor="middle">♡</text>
    
    <!-- 状态标签 -->
    <rect x="28" y="28" width="44" height="20" rx="8" fill="#CCE1FF"/>
    <text x="50" y="41" font-family="PingFang SC" font-size="10" font-weight="500" fill="#4E6FFF" text-anchor="middle">在售</text>
    
    <!-- 商品信息 -->
    <text x="16" y="200" font-family="PingFang SC" font-size="16" font-weight="600" fill="#222222">iPhone 14 Pro 深空黑</text>
    <text x="16" y="220" font-family="PingFang SC" font-size="12" fill="#666666">9成新 | 数码产品</text>
    
    <!-- 价格 -->
    <text x="16" y="250" font-family="PingFang SC" font-size="20" font-weight="700" fill="#4E6FFF">¥6,800</text>
    <text x="90" y="250" font-family="PingFang SC" font-size="14" fill="#999999" text-decoration="line-through">¥8,999</text>
    
    <!-- 发布者信息 -->
    <circle cx="24" cy="275" r="10" fill="#4E6FFF"/>
    <text x="24" y="280" font-family="PingFang SC" font-size="8" font-weight="500" fill="white" text-anchor="middle">ZL</text>
    <text x="40" y="280" font-family="PingFang SC" font-size="10" fill="#666666">张亮 · 2小时前</text>
    
    <!-- 互动信息 -->
    <text x="16" y="300" font-family="PingFang SC" font-size="9" fill="#999999">👁 126 · ❤ 23 · 💬 8</text>
    
    <!-- 操作按钮 -->
    <rect x="16" y="320" width="120" height="28" rx="14" fill="#4E6FFF"/>
    <text x="76" y="337" font-family="PingFang SC" font-size="11" font-weight="500" fill="white" text-anchor="middle">立即交换</text>
    
    <rect x="144" y="320" width="120" height="28" rx="14" fill="white" stroke="#E0E0E6" stroke-width="1"/>
    <text x="204" y="337" font-family="PingFang SC" font-size="11" font-weight="500" fill="#4E6FFF" text-anchor="middle">查看详情</text>
  </g>
  
  <!-- 悬停状态 -->
  <g transform="translate(400, 136)">
    <text x="0" y="-20" font-family="PingFang SC" font-size="18" font-weight="600" fill="#222222">悬停状态 (Hover)</text>
    
    <!-- 卡片容器 - 向上位移4px，增强阴影 -->
    <rect x="0" y="0" width="280" height="360" rx="16" fill="white" stroke="#E0E0E6" stroke-width="1" filter="url(#hoverShadow)"/>
    
    <!-- 图片区域 -->
    <rect x="16" y="16" width="248" height="160" rx="12" fill="#F3F3F7"/>
    <rect x="32" y="32" width="216" height="128" rx="8" fill="#E0E0E6"/>
    <text x="140" y="100" font-family="PingFang SC" font-size="40" fill="#999999" text-anchor="middle">📱</text>
    
    <!-- 收藏按钮 - 悬停效果 -->
    <circle cx="244" cy="36" r="14" fill="white" stroke="#4E6FFF" stroke-width="1" filter="url(#hoverButtonShadow)"/>
    <text x="244" y="41" font-family="PingFang SC" font-size="12" fill="#4E6FFF" text-anchor="middle">♡</text>
    
    <!-- 状态标签 -->
    <rect x="28" y="28" width="44" height="20" rx="8" fill="#CCE1FF"/>
    <text x="50" y="41" font-family="PingFang SC" font-size="10" font-weight="500" fill="#4E6FFF" text-anchor="middle">在售</text>
    
    <!-- 商品信息 -->
    <text x="16" y="200" font-family="PingFang SC" font-size="16" font-weight="600" fill="#222222">iPhone 14 Pro 深空黑</text>
    <text x="16" y="220" font-family="PingFang SC" font-size="12" fill="#666666">9成新 | 数码产品</text>
    
    <!-- 价格 -->
    <text x="16" y="250" font-family="PingFang SC" font-size="20" font-weight="700" fill="#4E6FFF">¥6,800</text>
    <text x="90" y="250" font-family="PingFang SC" font-size="14" fill="#999999" text-decoration="line-through">¥8,999</text>
    
    <!-- 发布者信息 -->
    <circle cx="24" cy="275" r="10" fill="#4E6FFF"/>
    <text x="24" y="280" font-family="PingFang SC" font-size="8" font-weight="500" fill="white" text-anchor="middle">ZL</text>
    <text x="40" y="280" font-family="PingFang SC" font-size="10" fill="#666666">张亮 · 2小时前</text>
    
    <!-- 互动信息 -->
    <text x="16" y="300" font-family="PingFang SC" font-size="9" fill="#999999">👁 126 · ❤ 23 · 💬 8</text>
    
    <!-- 操作按钮 - 悬停加深 -->
    <rect x="16" y="320" width="120" height="28" rx="14" fill="#3050E0"/>
    <text x="76" y="337" font-family="PingFang SC" font-size="11" font-weight="500" fill="white" text-anchor="middle">立即交换</text>
    
    <rect x="144" y="320" width="120" height="28" rx="14" fill="white" stroke="#4E6FFF" stroke-width="1"/>
    <text x="204" y="337" font-family="PingFang SC" font-size="11" font-weight="500" fill="#4E6FFF" text-anchor="middle">查看详情</text>
  </g>
  
  <!-- 收藏状态 -->
  <g transform="translate(720, 140)">
    <text x="0" y="-20" font-family="PingFang SC" font-size="18" font-weight="600" fill="#222222">收藏状态 (Liked)</text>
    
    <!-- 卡片容器 -->
    <rect x="0" y="0" width="280" height="360" rx="16" fill="white" stroke="#E0E0E6" stroke-width="1" filter="url(#defaultShadow)"/>
    
    <!-- 图片区域 -->
    <rect x="16" y="16" width="248" height="160" rx="12" fill="#F3F3F7"/>
    <rect x="32" y="32" width="216" height="128" rx="8" fill="#E0E0E6"/>
    <text x="140" y="100" font-family="PingFang SC" font-size="40" fill="#999999" text-anchor="middle">📱</text>
    
    <!-- 收藏按钮 - 已收藏状态 -->
    <circle cx="244" cy="36" r="14" fill="#FFE5E9" stroke="#FF6B8B" stroke-width="1"/>
    <text x="244" y="41" font-family="PingFang SC" font-size="12" fill="#FF6B8B" text-anchor="middle">♥</text>
    
    <!-- 状态标签 -->
    <rect x="28" y="28" width="44" height="20" rx="8" fill="#CCE1FF"/>
    <text x="50" y="41" font-family="PingFang SC" font-size="10" font-weight="500" fill="#4E6FFF" text-anchor="middle">在售</text>
    
    <!-- 商品信息 -->
    <text x="16" y="200" font-family="PingFang SC" font-size="16" font-weight="600" fill="#222222">iPhone 14 Pro 深空黑</text>
    <text x="16" y="220" font-family="PingFang SC" font-size="12" fill="#666666">9成新 | 数码产品</text>
    
    <!-- 价格 -->
    <text x="16" y="250" font-family="PingFang SC" font-size="20" font-weight="700" fill="#4E6FFF">¥6,800</text>
    <text x="90" y="250" font-family="PingFang SC" font-size="14" fill="#999999" text-decoration="line-through">¥8,999</text>
    
    <!-- 发布者信息 -->
    <circle cx="24" cy="275" r="10" fill="#4E6FFF"/>
    <text x="24" y="280" font-family="PingFang SC" font-size="8" font-weight="500" fill="white" text-anchor="middle">ZL</text>
    <text x="40" y="280" font-family="PingFang SC" font-size="10" fill="#666666">张亮 · 2小时前</text>
    
    <!-- 互动信息 -->
    <text x="16" y="300" font-family="PingFang SC" font-size="9" fill="#999999">👁 126 · ❤ 24 · 💬 8</text>
    
    <!-- 操作按钮 -->
    <rect x="16" y="320" width="120" height="28" rx="14" fill="#4E6FFF"/>
    <text x="76" y="337" font-family="PingFang SC" font-size="11" font-weight="500" fill="white" text-anchor="middle">立即交换</text>
    
    <rect x="144" y="320" width="120" height="28" rx="14" fill="white" stroke="#E0E0E6" stroke-width="1"/>
    <text x="204" y="337" font-family="PingFang SC" font-size="11" font-weight="500" fill="#4E6FFF" text-anchor="middle">查看详情</text>
  </g>
  
  <!-- 已预定状态 -->
  <g transform="translate(80, 540)">
    <text x="0" y="-20" font-family="PingFang SC" font-size="18" font-weight="600" fill="#222222">已预定状态 (Reserved)</text>
    
    <!-- 卡片容器 - 稍微降低透明度 -->
    <rect x="0" y="0" width="280" height="360" rx="16" fill="white" stroke="#E0E0E6" stroke-width="1" filter="url(#defaultShadow)" opacity="0.8"/>
    
    <!-- 图片区域 -->
    <rect x="16" y="16" width="248" height="160" rx="12" fill="#F3F3F7"/>
    <rect x="32" y="32" width="216" height="128" rx="8" fill="#E0E0E6"/>
    <text x="140" y="100" font-family="PingFang SC" font-size="40" fill="#999999" text-anchor="middle">📱</text>
    
    <!-- 收藏按钮 - 禁用状态 -->
    <circle cx="244" cy="36" r="14" fill="white" fill-opacity="0.6"/>
    <text x="244" y="41" font-family="PingFang SC" font-size="12" fill="#CCCCCC" text-anchor="middle">♡</text>
    
    <!-- 状态标签 - 已预定 -->
    <rect x="28" y="28" width="50" height="20" rx="8" fill="#FFE5E9"/>
    <text x="53" y="41" font-family="PingFang SC" font-size="10" font-weight="500" fill="#FF6B8B" text-anchor="middle">已预定</text>
    
    <!-- 商品信息 -->
    <text x="16" y="200" font-family="PingFang SC" font-size="16" font-weight="600" fill="#999999">iPhone 14 Pro 深空黑</text>
    <text x="16" y="220" font-family="PingFang SC" font-size="12" fill="#999999">9成新 | 数码产品</text>
    
    <!-- 价格 -->
    <text x="16" y="250" font-family="PingFang SC" font-size="20" font-weight="700" fill="#999999">¥6,800</text>
    <text x="90" y="250" font-family="PingFang SC" font-size="14" fill="#CCCCCC" text-decoration="line-through">¥8,999</text>
    
    <!-- 发布者信息 -->
    <circle cx="24" cy="275" r="10" fill="#999999"/>
    <text x="24" y="280" font-family="PingFang SC" font-size="8" font-weight="500" fill="white" text-anchor="middle">ZL</text>
    <text x="40" y="280" font-family="PingFang SC" font-size="10" fill="#999999">张亮 · 2小时前</text>
    
    <!-- 互动信息 -->
    <text x="16" y="300" font-family="PingFang SC" font-size="9" fill="#CCCCCC">👁 126 · ❤ 23 · 💬 8</text>
    
    <!-- 操作按钮 - 禁用状态 -->
    <rect x="16" y="320" width="120" height="28" rx="14" fill="#E0E0E6"/>
    <text x="76" y="337" font-family="PingFang SC" font-size="11" font-weight="500" fill="#999999" text-anchor="middle">已预定</text>
    
    <rect x="144" y="320" width="120" height="28" rx="14" fill="white" stroke="#E0E0E6" stroke-width="1"/>
    <text x="204" y="337" font-family="PingFang SC" font-size="11" font-weight="500" fill="#999999" text-anchor="middle">查看详情</text>
  </g>
  
  <!-- 已售出状态 -->
  <g transform="translate(400, 540)">
    <text x="0" y="-20" font-family="PingFang SC" font-size="18" font-weight="600" fill="#222222">已售出状态 (Sold)</text>
    
    <!-- 卡片容器 - 更低透明度 -->
    <rect x="0" y="0" width="280" height="360" rx="16" fill="white" stroke="#E0E0E6" stroke-width="1" filter="url(#defaultShadow)" opacity="0.6"/>
    
    <!-- 图片区域 -->
    <rect x="16" y="16" width="248" height="160" rx="12" fill="#F3F3F7"/>
    <rect x="32" y="32" width="216" height="128" rx="8" fill="#E0E0E6"/>
    <text x="140" y="100" font-family="PingFang SC" font-size="40" fill="#CCCCCC" text-anchor="middle">📱</text>
    
    <!-- 收藏按钮 - 禁用状态 -->
    <circle cx="244" cy="36" r="14" fill="white" fill-opacity="0.5"/>
    <text x="244" y="41" font-family="PingFang SC" font-size="12" fill="#CCCCCC" text-anchor="middle">♡</text>
    
    <!-- 状态标签 - 已售出 -->
    <rect x="28" y="28" width="50" height="20" rx="8" fill="#F3F3F7"/>
    <text x="53" y="41" font-family="PingFang SC" font-size="10" font-weight="500" fill="#999999" text-anchor="middle">已售出</text>
    
    <!-- 商品信息 -->
    <text x="16" y="200" font-family="PingFang SC" font-size="16" font-weight="600" fill="#CCCCCC">iPhone 14 Pro 深空黑</text>
    <text x="16" y="220" font-family="PingFang SC" font-size="12" fill="#CCCCCC">9成新 | 数码产品</text>
    
    <!-- 价格 -->
    <text x="16" y="250" font-family="PingFang SC" font-size="20" font-weight="700" fill="#CCCCCC">¥6,800</text>
    <text x="90" y="250" font-family="PingFang SC" font-size="14" fill="#CCCCCC" text-decoration="line-through">¥8,999</text>
    
    <!-- 发布者信息 -->
    <circle cx="24" cy="275" r="10" fill="#CCCCCC"/>
    <text x="24" y="280" font-family="PingFang SC" font-size="8" font-weight="500" fill="white" text-anchor="middle">ZL</text>
    <text x="40" y="280" font-family="PingFang SC" font-size="10" fill="#CCCCCC">张亮 · 2小时前</text>
    
    <!-- 互动信息 -->
    <text x="16" y="300" font-family="PingFang SC" font-size="9" fill="#CCCCCC">👁 126 · ❤ 23 · 💬 8</text>
    
    <!-- 操作按钮 - 禁用状态 -->
    <rect x="16" y="320" width="120" height="28" rx="14" fill="#F3F3F7"/>
    <text x="76" y="337" font-family="PingFang SC" font-size="11" font-weight="500" fill="#CCCCCC" text-anchor="middle">已售出</text>
    
    <rect x="144" y="320" width="120" height="28" rx="14" fill="white" stroke="#E0E0E6" stroke-width="1"/>
    <text x="204" y="337" font-family="PingFang SC" font-size="11" font-weight="500" fill="#CCCCCC" text-anchor="middle">查看详情</text>
  </g>
  
  <!-- 特殊状态标签示例 -->
  <g transform="translate(720, 540)">
    <text x="0" y="-20" font-family="PingFang SC" font-size="18" font-weight="600" fill="#222222">特殊状态示例</text>
    
    <!-- 火热标签 -->
    <rect x="0" y="20" width="60" height="24" rx="12" fill="#FFF3E0"/>
    <text x="30" y="35" font-family="PingFang SC" font-size="12" font-weight="500" fill="#FFB951" text-anchor="middle">火热</text>
    
    <!-- 急售标签 -->
    <rect x="0" y="60" width="60" height="24" rx="12" fill="#F3F0FF"/>
    <text x="30" y="75" font-family="PingFang SC" font-size="12" font-weight="500" fill="#8F7CFF" text-anchor="middle">急售</text>
    
    <!-- 新品标签 -->
    <rect x="0" y="100" width="60" height="24" rx="12" fill="#E6F7F0"/>
    <text x="30" y="115" font-family="PingFang SC" font-size="12" font-weight="500" fill="#65D1AA" text-anchor="middle">新品</text>
    
    <text x="80" y="35" font-family="PingFang SC" font-size="12" fill="#666666">热门商品，浏览量高</text>
    <text x="80" y="75" font-family="PingFang SC" font-size="12" fill="#666666">价格优惠，急需出售</text>
    <text x="80" y="115" font-family="PingFang SC" font-size="12" fill="#666666">全新或几乎全新</text>
  </g>
  
  <!-- 交互说明 -->
  <g transform="translate(720, 680)">
    <text x="0" y="0" font-family="PingFang SC" font-size="16" font-weight="600" fill="#222222">交互状态说明</text>
    <text x="0" y="20" font-family="PingFang SC" font-size="12" fill="#666666">• 悬停：卡片向上4px，阴影加深，按钮颜色加深</text>
    <text x="0" y="35" font-family="PingFang SC" font-size="12" fill="#666666">• 收藏：心形图标变实心，颜色变为珊瑚色</text>
    <text x="0" y="50" font-family="PingFang SC" font-size="12" fill="#666666">• 已预定：整体透明度80%，状态标签珊瑚色</text>
    <text x="0" y="65" font-family="PingFang SC" font-size="12" fill="#666666">• 已售出：整体透明度60%，所有文字变灰</text>
  </g>
  
  <!-- 滤镜定义 -->
  <defs>
    <filter id="defaultShadow" x="-10%" y="-10%" width="120%" height="120%">
      <feDropShadow dx="0" dy="4" stdDeviation="4" flood-color="rgba(0,0,0,0.08)"/>
    </filter>
    <filter id="hoverShadow" x="-15%" y="-15%" width="130%" height="130%">
      <feDropShadow dx="0" dy="8" stdDeviation="12" flood-color="rgba(0,0,0,0.12)"/>
    </filter>
    <filter id="buttonShadow" x="-20%" y="-20%" width="140%" height="140%">
      <feDropShadow dx="0" dy="1" stdDeviation="1" flood-color="rgba(0,0,0,0.05)"/>
    </filter>
    <filter id="hoverButtonShadow" x="-20%" y="-20%" width="140%" height="140%">
      <feDropShadow dx="0" dy="2" stdDeviation="2" flood-color="rgba(0,0,0,0.08)"/>
    </filter>
  </defs>
</svg>
