<svg xmlns="http://www.w3.org/2000/svg" viewBox="0 0 1200 2000">
  <!-- 背景 -->
  <rect width="1200" height="2000" fill="#F9F9FB" />
  
  <!-- 标题 -->
  <text x="50" y="70" font-family="Inter, sans-serif" font-size="36" font-weight="700" fill="#222222">BitBit 卡片和内容组件</text>
  <text x="50" y="110" font-family="Inter, sans-serif" font-size="18" fill="#666666">社交活动平台卡片与内容展示组件系统</text>
  <line x1="50" y1="140" x2="1150" y2="140" stroke="#E0E0E6" stroke-width="2" />
  
  <!-- 1. 活动卡片 -->
  <text x="50" y="190" font-family="Inter, sans-serif" font-size="28" font-weight="700" fill="#222222">1. 活动卡片</text>
  
  <!-- 1.1 标准活动卡片 -->
  <text x="50" y="240" font-family="Inter, sans-serif" font-size="20" font-weight="600" fill="#222222">1.1 标准活动卡片</text>
  
  <!-- 活动卡片-标准 -->
  <rect x="50" y="270" width="350" height="400" rx="16" fill="white" filter="drop-shadow(0px 4px 16px rgba(0, 0, 0, 0.08))" />
  <rect x="50" y="270" width="350" height="200" rx="16" fill="#F3F3F7" />
  <rect x="50" y="270" width="350" height="200" rx="16" fill="url(#gradient4)" opacity="0.3" />
  <circle cx="360" cy="300" r="20" fill="white" filter="drop-shadow(0px 2px 8px rgba(0, 0, 0, 0.12))" />
  <text x="360" y="306" font-family="Inter, sans-serif" font-size="20" font-weight="500" fill="#4E6FFF" text-anchor="middle">♡</text>
  <rect x="70" y="350" width="100" height="24" rx="12" fill="rgba(78, 111, 255, 0.2)" />
  <text x="120" y="367" font-family="Inter, sans-serif" font-size="14" font-weight="500" fill="#4E6FFF" text-anchor="middle">户外活动</text>
  
  <text x="70" y="500" font-family="Inter, sans-serif" font-size="18" font-weight="600" fill="#222222">周末爬山活动</text>
  <text x="70" y="530" font-family="Inter, sans-serif" font-size="14" fill="#666666">6月18日 周六 09:00-15:00</text>
  <text x="70" y="555" font-family="Inter, sans-serif" font-size="14" fill="#666666">莫干山风景区</text>
  <text x="70" y="590" font-family="Inter, sans-serif" font-size="14" font-weight="500" fill="#4E6FFF">已有24人报名</text>
  <rect x="70" y="610" width="150" height="40" rx="20" fill="#4E6FFF" />
  <text x="145" y="635" font-family="Inter, sans-serif" font-size="14" font-weight="500" fill="white" text-anchor="middle">立即报名</text>
  <rect x="230" y="610" width="150" height="40" rx="20" fill="white" stroke="#4E6FFF" stroke-width="1.5" />
  <text x="305" y="635" font-family="Inter, sans-serif" font-size="14" font-weight="500" fill="#4E6FFF" text-anchor="middle">了解详情</text>
  
  <!-- 活动卡片-小型 -->
  <rect x="450" y="270" width="250" height="300" rx="16" fill="white" filter="drop-shadow(0px 4px 16px rgba(0, 0, 0, 0.08))" />
  <rect x="450" y="270" width="250" height="140" rx="16" fill="#F3F3F7" />
  <rect x="450" y="270" width="250" height="140" rx="16" fill="url(#gradient3)" opacity="0.3" />
  <rect x="470" y="310" width="80" height="24" rx="12" fill="rgba(101, 209, 170, 0.2)" />
  <text x="510" y="327" font-family="Inter, sans-serif" font-size="14" font-weight="500" fill="#65D1AA" text-anchor="middle">美食</text>
  
  <text x="470" y="440" font-family="Inter, sans-serif" font-size="16" font-weight="600" fill="#222222">咖啡品鉴工作坊</text>
  <text x="470" y="465" font-family="Inter, sans-serif" font-size="14" fill="#666666">6月16日 周四 14:00-16:00</text>
  <text x="470" y="490" font-family="Inter, sans-serif" font-size="14" fill="#666666">星空咖啡馆</text>
  <text x="470" y="520" font-family="Inter, sans-serif" font-size="14" font-weight="500" fill="#4E6FFF">18人参加</text>
  <rect x="470" y="540" width="110" height="36" rx="18" fill="#4E6FFF" />
  <text x="525" y="563" font-family="Inter, sans-serif" font-size="14" font-weight="500" fill="white" text-anchor="middle">报名</text>
  <rect x="590" y="540" width="110" height="36" rx="18" fill="white" stroke="#4E6FFF" stroke-width="1.5" />
  <text x="645" y="563" font-family="Inter, sans-serif" font-size="14" font-weight="500" fill="#4E6FFF" text-anchor="middle">详情</text>
  
  <!-- 活动卡片-横向 -->
  <rect x="750" y="270" width="400" height="160" rx="16" fill="white" filter="drop-shadow(0px 4px 16px rgba(0, 0, 0, 0.08))" />
  <rect x="750" y="270" width="120" height="160" rx="16" fill="#F3F3F7" />
  <rect x="750" y="270" width="120" height="160" rx="16" fill="url(#gradient2)" opacity="0.3" />
  
  <text x="890" y="300" font-family="Inter, sans-serif" font-size="16" font-weight="600" fill="#222222">文学作品赏析读书会</text>
  <rect x="890" y="310" width="80" height="24" rx="12" fill="rgba(143, 124, 255, 0.2)" />
  <text x="930" y="327" font-family="Inter, sans-serif" font-size="14" font-weight="500" fill="#8F7CFF" text-anchor="middle">读书会</text>
  <text x="890" y="350" font-family="Inter, sans-serif" font-size="14" fill="#666666">6月19日 周日 14:00-16:30</text>
  <text x="890" y="375" font-family="Inter, sans-serif" font-size="14" fill="#666666">城市图书馆</text>
  <rect x="890" y="390" width="110" height="30" rx="15" fill="#4E6FFF" />
  <text x="945" y="410" font-family="Inter, sans-serif" font-size="12" font-weight="500" fill="white" text-anchor="middle">立即报名</text>
  <rect x="1010" y="390" width="110" height="30" rx="15" fill="white" stroke="#4E6FFF" stroke-width="1.5" />
  <text x="1065" y="410" font-family="Inter, sans-serif" font-size="12" font-weight="500" fill="#4E6FFF" text-anchor="middle">了解详情</text>
  
  <!-- 卡片规则 -->
  <rect x="50" y="690" width="1100" height="130" rx="8" fill="#F3F3F7" />
  <text x="70" y="715" font-family="Inter, sans-serif" font-size="14" fill="#666666">• 卡片圆角: 16px，阴影: drop-shadow(0px 4px 16px rgba(0, 0, 0, 0.08))</text>
  <text x="70" y="740" font-family="Inter, sans-serif" font-size="14" fill="#666666">• 卡片内边距: 水平方向20px，垂直方向16px</text>
  <text x="70" y="765" font-family="Inter, sans-serif" font-size="14" fill="#666666">• 标准卡片: 宽度350px左右，适用于网格布局；小型卡片: 宽度250px左右，适用于侧边栏</text>
  <text x="70" y="790" font-family="Inter, sans-serif" font-size="14" fill="#666666">• 横向卡片: 适用于列表视图，图片在左侧，内容在右侧</text>
  <text x="70" y="815" font-family="Inter, sans-serif" font-size="14" fill="#666666">• 图片区域: 建议比例16:9或4:3，可以使用渐变背景或叠加半透明颜色提升视觉效果</text>>
  
  <!-- 2. 社区卡片 -->
  <text x="50" y="860" font-family="Inter, sans-serif" font-size="28" font-weight="700" fill="#222222">2. 社区卡片</text>
  
  <!-- 社区帖子卡片 -->
  <rect x="50" y="900" width="500" height="250" rx="16" fill="white" filter="drop-shadow(0px 4px 16px rgba(0, 0, 0, 0.08))" />
  <rect x="70" y="920" width="40" height="40" rx="20" fill="#F3F3F7" />
  <text x="90" y="950" font-family="Inter, sans-serif" font-size="14" font-weight="500" fill="#666666" text-anchor="middle">JL</text>
  <text x="120" y="935" font-family="Inter, sans-serif" font-size="16" font-weight="600" fill="#222222">嘉丽</text>
  <text x="120" y="955" font-family="Inter, sans-serif" font-size="14" fill="#999999">2小时前</text>
  
  <text x="70" y="995" font-family="Inter, sans-serif" font-size="16" fill="#222222">有没有喜欢摄影的朋友？周末一起去西湖拍照，一起交流技巧~</text>
  
  <rect x="70" y="1030" width="460" height="80" rx="8" fill="#F3F3F7" />
  <text x="90" y="1075" font-family="Inter, sans-serif" font-size="14" fill="#666666">有兴趣的朋友可以+1，我创建了微信群，方便大家交流。</text>
  
  <rect x="70" y="1130" width="70" height="30" rx="15" fill="white" stroke="#E0E0E6" stroke-width="1" />
  <text x="105" y="1150" font-family="Inter, sans-serif" font-size="14" fill="#666666" text-anchor="middle">赞 15</text>
  
  <rect x="150" y="1130" width="85" height="30" rx="15" fill="white" stroke="#E0E0E6" stroke-width="1" />
  <text x="192" y="1150" font-family="Inter, sans-serif" font-size="14" fill="#666666" text-anchor="middle">评论 8</text>
  
  <!-- 社区评论卡片 -->
  <rect x="600" y="900" width="500" height="130" rx="16" fill="white" filter="drop-shadow(0px 4px 16px rgba(0, 0, 0, 0.08))" />
  <rect x="620" y="920" width="36" height="36" rx="18" fill="#65D1AA" />
  <text x="638" y="945" font-family="Inter, sans-serif" font-size="12" font-weight="500" fill="white" text-anchor="middle">QT</text>
  <text x="670" y="932" font-family="Inter, sans-serif" font-size="16" font-weight="600" fill="#222222">青藤</text>
  <text x="670" y="952" font-family="Inter, sans-serif" font-size="14" fill="#999999">1小时前</text>
  
  <text x="620" y="985" font-family="Inter, sans-serif" font-size="16" fill="#222222">我很感兴趣，已加群，期待周末摄影活动！</text>
  
  <rect x="620" y="1010" width="60" height="30" rx="15" fill="white" stroke="#E0E0E6" stroke-width="1" />
  <text x="650" y="1030" font-family="Inter, sans-serif" font-size="14" fill="#666666" text-anchor="middle">赞 3</text>
  
  <!-- 社区卡片规则 -->
  <rect x="50" y="1170" width="1050" height="110" rx="8" fill="#F3F3F7" />
  <text x="70" y="1195" font-family="Inter, sans-serif" font-size="14" fill="#666666">• 社区帖子卡片: 显示用户头像、名称、发布时间、内容文本、互动区块和操作按钮</text>
  <text x="70" y="1220" font-family="Inter, sans-serif" font-size="14" fill="#666666">• 评论卡片: 显示评论用户信息、评论内容和点赞按钮</text>
  <text x="70" y="1245" font-family="Inter, sans-serif" font-size="14" fill="#666666">• 内容区可根据文本长度自适应高度，长文本考虑折叠显示，图片内容建议使用网格布局</text>
  <text x="70" y="1270" font-family="Inter, sans-serif" font-size="14" fill="#666666">• 交互按钮采用轻量化设计，使用描边风格，不抢夺内容的注意力</text>
  
  <!-- 3. 二手交易卡片 -->
  <text x="50" y="1330" font-family="Inter, sans-serif" font-size="28" font-weight="700" fill="#222222">3. 二手交易卡片</text>
  
  <!-- 二手交易卡片-标准 -->
  <rect x="50" y="1370" width="320" height="220" rx="16" fill="white" filter="drop-shadow(0px 4px 16px rgba(0, 0, 0, 0.08))" />
  <rect x="70" y="1390" width="80" height="80" rx="8" fill="#F3F3F7" />
  <text x="110" y="1440" font-family="Inter, sans-serif" font-size="24" font-weight="500" fill="#666666" text-anchor="middle">📚</text>
  
  <text x="160" y="1400" font-family="Inter, sans-serif" font-size="18" font-weight="600" fill="#222222">二手书籍套装</text>
  <text x="160" y="1425" font-family="Inter, sans-serif" font-size="14" fill="#666666">包含编程与设计相关图书</text>
  <text x="160" y="1450" font-family="Inter, sans-serif" font-size="14" fill="#999999">90%新 | 十本书</text>
  <text x="160" y="1475" font-family="Inter, sans-serif" font-size="18" font-weight="600" fill="#FF6B8B">¥180</text>
  
  <rect x="70" y="1500" width="110" height="40" rx="20" fill="#4E6FFF" />
  <text x="125" y="1525" font-family="Inter, sans-serif" font-size="14" font-weight="500" fill="white" text-anchor="middle">交换</text>
  
  <rect x="190" y="1500" width="110" height="40" rx="20" fill="white" stroke="#4E6FFF" stroke-width="1.5" />
  <text x="245" y="1525" font-family="Inter, sans-serif" font-size="14" font-weight="500" fill="#4E6FFF" text-anchor="middle">详情</text>
  
  <!-- 二手交易卡片-横向 -->
  <rect x="420" y="1370" width="420" height="140" rx="16" fill="white" filter="drop-shadow(0px 4px 16px rgba(0, 0, 0, 0.08))" />
  <rect x="440" y="1390" width="80" height="80" rx="8" fill="#F3F3F7" />
  <text x="480" y="1440" font-family="Inter, sans-serif" font-size="24" font-weight="500" fill="#666666" text-anchor="middle">📱</text>
  
  <text x="540" y="1400" font-family="Inter, sans-serif" font-size="16" font-weight="600" fill="#222222">iPhone 12</text>
  <text x="540" y="1425" font-family="Inter, sans-serif" font-size="14" fill="#999999">95%新 | 128G</text>
  <text x="540" y="1450" font-family="Inter, sans-serif" font-size="16" font-weight="600" fill="#FF6B8B">¥3200</text>
  
  <circle x="730" cy="1430" r="16" fill="#FFB951" />
  <text x="730" y="1435" font-family="Inter, sans-serif" font-size="10" font-weight="500" fill="white" text-anchor="middle">WX</text>
  <text x="760" y="1435" font-family="Inter, sans-serif" font-size="14" fill="#666666">文轩</text>
  
  <rect x="650" y="1390" width="90" height="32" rx="16" fill="#4E6FFF" />
  <text x="695" y="1410" font-family="Inter, sans-serif" font-size="12" font-weight="500" fill="white" text-anchor="middle">交换</text>
  
  <rect x="650" y="1430" width="90" height="32" rx="16" fill="white" stroke="#4E6FFF" stroke-width="1.5" />
  <text x="695" y="1450" font-family="Inter, sans-serif" font-size="12" font-weight="500" fill="#4E6FFF" text-anchor="middle">详情</text>
  
  <!-- 二手交易卡片-网格 -->
  <rect x="890" y="1370" width="180" height="220" rx="16" fill="white" filter="drop-shadow(0px 4px 16px rgba(0, 0, 0, 0.08))" />
  <rect x="890" y="1370" width="180" height="120" rx="16" fill="#F3F3F7" />
  <text x="980" y="1440" font-family="Inter, sans-serif" font-size="24" font-weight="500" fill="#666666" text-anchor="middle">🎸</text>
  
  <text x="910" y="1505" font-family="Inter, sans-serif" font-size="16" font-weight="600" fill="#222222">民谣吉他</text>
  <text x="910" y="1530" font-family="Inter, sans-serif" font-size="12" fill="#999999">85%新</text>
  <text x="910" y="1550" font-family="Inter, sans-serif" font-size="14" font-weight="600" fill="#FF6B8B">¥280</text>
  <text x="1040" y="1550" font-family="Inter, sans-serif" font-size="14" fill="#999999" text-anchor="end">2天前</text>
  
  <!-- 二手交易卡片规则 -->
  <rect x="50" y="1610" width="1050" height="110" rx="8" fill="#F3F3F7" />
  <text x="70" y="1635" font-family="Inter, sans-serif" font-size="14" fill="#666666">• 交易卡片强调商品信息和价格，图片区域应清晰展示物品</text>
  <text x="70" y="1660" font-family="Inter, sans-serif" font-size="14" fill="#666666">• 价格使用珊瑚色(#FF6B8B)使其突出，新旧程度、物品类别等信息使用辅助文本色</text>
  <text x="70" y="1685" font-family="Inter, sans-serif" font-size="14" fill="#666666">• 提供多种布局适应不同场景：标准卡片适合详细浏览，横向卡片适合列表，网格卡片适合概览</text>
  <text x="70" y="1710" font-family="Inter, sans-serif" font-size="14" fill="#666666">• 操作按钮通常包括"交换"和"详情"，主按钮使用实色，次按钮使用描边样式</text>
  
  <!-- 4. 卡片设计指南 -->
  <text x="50" y="1770" font-family="Inter, sans-serif" font-size="28" font-weight="700" fill="#222222">4. 卡片设计指南</text>
  
  <rect x="50" y="1810" width="1050" height="150" rx="8" fill="#F3F3F7" />
  <text x="70" y="1835" font-family="Inter, sans-serif" font-size="14" fill="#666666">• 视觉层次: 卡片内部元素应遵循清晰的视觉层次，标题＞内容描述＞辅助信息＞操作按钮</text>
  <text x="70" y="1860" font-family="Inter, sans-serif" font-size="14" fill="#666666">• 内容密度: 保持适当的内容密度，避免过度拥挤，重要信息优先展示，次要信息可适当折叠</text>
  <text x="70" y="1885" font-family="Inter, sans-serif" font-size="14" fill="#666666">• 一致性: 同类卡片在尺寸、布局、交互模式上保持一致，提升用户熟悉度和可预测性</text>
  <text x="70" y="1910" font-family="Inter, sans-serif" font-size="14" fill="#666666">• 响应式: 卡片设计应考虑在不同屏幕尺寸下的表现，移动端可使用单列布局，桌面端可使用多列网格</text>
  <text x="70" y="1935" font-family="Inter, sans-serif" font-size="14" fill="#666666">• 交互反馈: 卡片悬停效应使用轻微阴影变化(加深)，避免过度动画影响性能</text>
  
  <!-- 渐变定义 -->
  <defs>
    <linearGradient id="gradient2" x1="0%" y1="0%" x2="100%" y2="100%">
      <stop offset="0%" style="stop-color:#FF6B8B;stop-opacity:0.7" />
      <stop offset="100%" style="stop-color:#FFB951;stop-opacity:0.7" />
    </linearGradient>
    <linearGradient id="gradient3" x1="0%" y1="0%" x2="100%" y2="100%">
      <stop offset="0%" style="stop-color:#65D1AA;stop-opacity:0.7" />
      <stop offset="100%" style="stop-color:#4E6FFF;stop-opacity:0.7" />
    </linearGradient>
    <linearGradient id="gradient4" x1="0%" y1="0%" x2="100%" y2="100%">
      <stop offset="0%" style="stop-color:#4E6FFF;stop-opacity:0.7" />
      <stop offset="100%" style="stop-color:#8F7CFF;stop-opacity:0.7" />
    </linearGradient>
  </defs>
</svg>